<svg width="270" height="82" viewBox="0 0 270 82" fill="none" xmlns="http://www.w3.org/2000/svg">
<g filter="url(#filter0_b_200_128)">
<rect width="270" height="82" rx="41" fill="#2387A6"/>
<rect x="0.5" y="0.5" width="269" height="81" rx="40.5" stroke="#2387A6"/>
</g>
<path d="M180.385 33.0954C180.531 33.5122 180.568 33.9811 180.495 34.5023C180.422 35.0235 180.294 35.5538 180.111 36.0914C179.928 36.6309 179.717 37.1512 179.48 37.6549C179.241 38.1587 179.031 38.602 178.848 38.9839C177.896 40.8259 176.999 42.6322 176.157 44.4036C175.314 46.175 174.326 48.104 173.191 50.1877C172.971 50.6045 172.724 51.1 172.45 51.6724C172.176 52.2458 171.873 52.8018 171.543 53.3404C171.214 53.8789 170.857 54.3744 170.473 54.8251C170.088 55.2766 169.676 55.6064 169.237 55.8152C168.87 56.0241 168.504 56.1101 168.138 56.0753C167.845 56.1449 167.516 56.057 167.15 55.8152C166.71 55.6064 166.298 55.2766 165.914 54.8251C165.53 54.3744 165.173 53.8789 164.843 53.3404C164.514 52.8018 164.212 52.2458 163.937 51.6724C163.663 51.0991 163.415 50.6045 163.195 50.1877C162.756 49.389 162.344 48.6425 161.96 47.9473C161.576 47.253 161.172 46.4974 160.751 45.6804C160.33 44.8643 159.863 43.9263 159.35 42.8666C158.837 41.8069 158.233 40.5136 157.537 38.9839C157.354 38.5672 157.153 38.1331 156.933 37.6815C156.713 37.2309 156.521 36.7436 156.357 36.2224C156.192 35.7012 156.082 35.1718 156.027 34.6332C155.972 34.0947 156 33.5479 156.109 32.9919C156.22 32.4707 156.494 32.054 156.933 31.7416C157.372 31.4293 157.867 31.2205 158.416 31.116C158.965 31.0116 159.514 31.0208 160.064 31.1417C160.613 31.2635 161.052 31.498 161.382 31.8451C161.711 32.1575 162.022 32.5752 162.315 33.0954C162.608 33.6166 162.891 34.1634 163.167 34.7368C163.441 35.3101 163.697 35.8835 163.936 36.4569C164.173 37.0303 164.403 37.5249 164.622 37.9416C165.135 38.9501 165.711 40.0437 166.352 41.2244C166.992 42.4059 167.57 43.5005 168.082 44.5071C168.448 43.7084 168.777 43.0397 169.071 42.5012C169.363 41.9626 169.647 41.4332 169.922 40.912C170.197 40.3908 170.49 39.8174 170.801 39.1919C171.112 38.5663 171.506 37.7676 171.982 36.7949C172.421 35.8917 172.869 35.006 173.327 34.1368C173.785 33.2685 174.344 32.5046 175.002 31.8442C175.331 31.4971 175.752 31.2626 176.266 31.1408C176.779 31.0199 177.31 31.0107 177.859 31.1152C178.408 31.2196 178.911 31.4366 179.37 31.7664C179.827 32.097 180.166 32.5404 180.386 33.0954H180.385Z" fill="#FFFFFC"/>
<path d="M202.301 48.7807C202.74 48.6763 203.188 48.6076 203.647 48.5719C204.104 48.538 204.525 48.5902 204.91 48.7285C205.294 48.8677 205.615 49.1022 205.872 49.432C206.128 49.7626 206.256 50.2224 206.256 50.8132C206.256 51.23 206.146 51.6302 205.927 52.0122C205.707 52.395 205.433 52.7412 205.103 53.0545C204.774 53.3677 204.407 53.637 204.005 53.8624C203.601 54.0886 203.217 54.2708 202.851 54.4092C201.788 54.8607 200.572 55.2088 199.199 55.4515C197.826 55.6951 196.406 55.7822 194.943 55.7116C192.965 55.642 191.07 55.2683 189.257 54.5914C187.444 53.9137 186.025 52.7934 185.001 51.2299C184.048 49.7012 183.481 47.9995 183.298 46.1227C183.115 44.2469 183.206 42.4745 183.572 40.8075C183.975 38.7933 184.661 37.1511 185.632 35.8825C186.602 34.6148 187.765 33.5982 189.12 32.8343C190.768 31.9312 192.617 31.4622 194.667 31.4274C196.718 31.3935 198.677 31.7754 200.545 32.5741C201.789 33.0953 202.906 33.7987 203.896 34.6844C204.885 35.5702 205.634 36.6391 206.148 37.8893C206.294 38.2017 206.413 38.5845 206.505 39.0361C206.596 39.4876 206.661 39.9657 206.697 40.4695C206.733 40.9733 206.733 41.4688 206.697 41.9542C206.661 42.4415 206.569 42.8748 206.423 43.2567C206.203 43.8823 205.929 44.3686 205.6 44.7158C205.27 45.0638 204.848 45.324 204.336 45.4971C203.822 45.6711 203.21 45.7838 202.496 45.836C201.781 45.8882 200.931 45.9321 199.941 45.966C199.063 46.0008 198.238 46.0183 197.47 46.0183C196.701 46.0183 195.913 46.01 195.109 45.9926C194.302 45.9752 193.469 45.9587 192.609 45.9404C191.748 45.923 190.787 45.8973 189.726 45.8625C189.615 46.5577 189.716 47.1567 190.028 47.6605C190.339 48.1643 190.769 48.5811 191.318 48.9108C191.868 49.2415 192.489 49.4933 193.186 49.6665C193.881 49.8405 194.558 49.9449 195.218 49.9788C196.462 50.0484 197.652 49.9531 198.788 49.6921C199.922 49.432 201.095 49.1279 202.303 48.7798L202.301 48.7807ZM199.939 38.6706C199.243 37.9067 198.512 37.3507 197.742 37.0027C197.156 36.76 196.542 36.6464 195.902 36.6638C195.261 36.6821 194.647 36.7774 194.062 36.9505C192.999 37.1941 192.102 37.7153 191.371 38.514C191.297 38.5836 191.169 38.7485 190.986 39.0095C190.803 39.2696 190.629 39.5398 190.464 39.8174C190.299 40.0958 190.18 40.356 190.107 40.5987C190.033 40.8423 190.07 40.9632 190.217 40.9632H200.982C200.945 40.4769 200.854 40.0693 200.708 39.7386C200.561 39.4089 200.304 39.0525 199.939 38.6706Z" fill="#FFFFFC"/>
<path d="M217.795 38.2918V51.1112C217.759 52.1535 217.694 53.2655 217.603 54.4461C217.512 55.6277 217.329 56.7909 217.054 57.9377C216.78 59.0844 216.348 60.1524 215.763 61.1426C215.177 62.1327 214.371 62.9579 213.347 63.6183C212.175 64.3474 210.893 64.8246 209.502 65.0517C208.11 65.2771 206.755 65.1992 205.437 64.8173C204.631 64.6432 203.853 64.3822 203.103 64.036C202.352 63.6879 201.721 63.2364 201.208 62.6813C200.549 62.0209 200.073 61.2305 199.78 60.3099C199.487 59.3894 199.67 58.5303 200.329 57.7307C200.769 57.2095 201.308 56.8706 201.949 56.7149C202.589 56.5583 203.221 56.637 203.844 56.9494C204.429 57.2278 204.998 57.5054 205.547 57.7829C206.097 58.0613 206.646 58.2436 207.195 58.3297C207.745 58.4167 208.294 58.3645 208.843 58.173C209.393 57.9825 209.942 57.5741 210.491 56.9485C210.747 56.6361 210.939 56.1846 211.068 55.5938C211.195 55.003 211.288 54.3518 211.342 53.6392C211.397 52.9275 211.424 52.2149 211.424 51.5023V42.8256C211.424 42.4089 211.404 41.7833 211.369 40.9498C211.332 40.1163 211.322 39.2388 211.342 38.3183C211.36 37.3978 211.432 36.5386 211.562 35.739C211.689 34.9403 211.9 34.3669 212.193 34.0189C212.668 33.429 213.282 33.1249 214.033 33.1066C214.783 33.0892 215.47 33.2715 216.093 33.6534C216.496 33.8971 216.808 34.2003 217.027 34.5657C217.247 34.9303 217.411 35.3213 217.521 35.7381C217.631 36.1548 217.704 36.5807 217.741 37.0149C217.777 37.45 217.796 37.875 217.796 38.2918H217.795Z" fill="#FFFFFC"/>
<path d="M229.604 33.5481C230.813 32.993 232.075 32.5928 233.394 32.3491C234.712 32.1064 236.021 32.0542 237.321 32.1925C238.621 32.3317 239.885 32.6615 241.112 33.1826C242.338 33.7038 243.464 34.4329 244.49 35.3717C245.331 36.1713 246.063 37.1358 246.687 38.2642C247.308 39.3936 247.766 40.4973 248.06 41.5735C248.682 43.4842 248.774 45.4132 248.334 47.3577C247.894 49.3041 247.143 51.1094 246.081 52.7773C245.568 53.5421 244.937 54.2281 244.186 54.8354C243.435 55.4435 242.639 55.9391 241.797 56.3201C240.698 56.8074 239.508 57.1454 238.227 57.3359C236.945 57.5264 235.701 57.5704 234.492 57.466C232.295 57.3615 230.363 56.8404 228.698 55.9025C227.031 54.9646 225.694 53.7656 224.688 52.3065C223.68 50.8474 223.022 49.1886 222.711 47.3302C222.399 45.4717 222.519 43.5703 223.068 41.6239C223.653 39.5392 224.505 37.8457 225.623 36.5432C226.74 35.2407 228.067 34.2424 229.605 33.5472L229.604 33.5481ZM231.252 40.5312C230.703 41.0185 230.282 41.6257 229.988 42.3548C229.695 43.0839 229.512 43.8396 229.439 44.6218C229.366 45.4031 229.429 46.1853 229.631 46.9666C229.832 47.7479 230.152 48.4513 230.593 49.0769C230.959 49.5981 231.617 50.0331 232.57 50.3793C233.522 50.7274 234.51 50.9353 235.535 51.0049C236.707 51.0745 237.733 50.7705 238.611 50.0927C239.49 49.4149 240.158 48.5731 240.616 47.5656C241.074 46.5581 241.284 45.4644 241.248 44.2829C241.211 43.1022 240.881 42.0251 240.259 41.0523C239.82 40.3581 239.206 39.8461 238.419 39.5154C237.631 39.1857 236.807 39.0126 235.948 38.9943C235.087 38.9769 234.236 39.0987 233.393 39.3588C232.55 39.6189 231.836 40.01 231.251 40.5312H231.252Z" fill="#FFFFFC"/>
<path d="M113.463 32.1892C113.756 32.8496 113.784 33.5796 113.545 34.3783C113.307 35.1779 112.876 35.6991 112.255 35.9418C111.925 36.081 111.485 36.1946 110.937 36.2807C110.388 36.3677 109.792 36.4456 109.152 36.5152C108.511 36.5848 107.879 36.637 107.257 36.6718C106.634 36.7066 106.103 36.724 105.664 36.724C105.7 37.7664 105.737 38.8344 105.774 39.9289C105.81 41.0235 105.847 42.0914 105.884 43.1338C105.92 44.1761 105.939 45.1754 105.939 46.1298C105.939 47.0842 105.92 47.9452 105.884 48.7091V50.507C105.884 51.1848 105.838 51.8361 105.747 52.4617C105.655 53.0873 105.518 53.6341 105.335 54.103C105.151 54.572 104.876 54.877 104.511 55.0153C103.376 55.466 102.342 55.5969 101.407 55.4064C100.474 55.215 99.8048 54.8422 99.4023 54.2862C99.1088 53.8356 98.8887 53.3053 98.7429 52.6971C98.5962 52.0898 98.4958 51.4642 98.4407 50.8212C98.3857 50.1792 98.3674 49.5536 98.3857 48.9454C98.4041 48.3381 98.4127 47.8078 98.4127 47.3562C98.4485 45.8971 98.4765 44.2384 98.4948 42.3799C98.5131 40.5215 98.5218 38.6539 98.5218 36.7781H97.6983C97.2591 36.7781 96.7001 36.7698 96.0234 36.7524C95.3457 36.735 94.668 36.6828 93.9912 36.5958C93.3135 36.5097 92.6812 36.387 92.0962 36.2313C91.5102 36.0746 91.0883 35.8401 90.8325 35.5278C90.4289 35.0772 90.1818 34.5899 90.091 34.0688C89.9993 33.5476 90.036 33.053 90.2011 32.584C90.3662 32.1151 90.6307 31.6983 90.9975 31.3337C91.3634 30.9692 91.7843 30.7347 92.2612 30.6303C92.9206 30.4572 93.8541 30.3619 95.0628 30.3436C96.2715 30.3262 97.4058 30.3354 98.4678 30.3693C98.4311 30.0221 98.4127 29.6832 98.4127 29.3535C98.4127 29.0238 98.3934 28.7023 98.3577 28.389C98.321 27.9723 98.3027 27.4428 98.3027 26.7998C98.3027 26.1569 98.3481 25.5148 98.4398 24.8718C98.5305 24.2297 98.6869 23.6206 98.907 23.0482C99.1271 22.4748 99.437 22.0324 99.8406 21.7192C100.39 21.3024 100.948 21.0679 101.516 21.0157C102.083 20.9635 102.614 21.0414 103.108 21.2502C103.603 21.459 104.024 21.7631 104.372 22.1625C104.72 22.5618 104.967 23.0052 105.114 23.4915C105.224 23.9083 105.314 24.4038 105.388 24.9762C105.461 25.5496 105.506 26.1486 105.525 26.7742C105.543 27.3998 105.552 28.0245 105.552 28.6501V30.3702H106.101C106.65 30.3702 107.291 30.3528 108.023 30.318C108.755 30.2841 109.479 30.3006 110.193 30.3702C110.907 30.4398 111.557 30.6047 112.143 30.8648C112.728 31.1249 113.167 31.5682 113.46 32.1938L113.463 32.1892Z" fill="#FFFFFC"/>
<path d="M134.939 48.0312C135.379 47.9268 135.827 47.8581 136.285 47.8223C136.743 47.7884 137.164 47.8406 137.549 47.979C137.933 48.1182 138.254 48.3527 138.51 48.6824C138.766 49.0131 138.895 49.4729 138.895 50.0637C138.895 50.4804 138.785 50.8807 138.565 51.2626C138.345 51.6455 138.071 51.9917 137.742 52.3049C137.413 52.6182 137.046 52.8875 136.643 53.1128C136.24 53.339 135.856 53.5213 135.49 53.6596C134.427 54.1112 133.21 54.4592 131.838 54.702C130.465 54.9456 129.045 55.0326 127.581 54.9621C125.604 54.8925 123.709 54.5188 121.896 53.8419C120.083 53.1641 118.664 52.0439 117.64 50.4804C116.687 48.9517 116.12 47.2499 115.937 45.3731C115.753 43.4973 115.845 41.7249 116.211 40.0579C116.613 38.0438 117.3 36.4015 118.271 35.1329C119.241 33.8653 120.403 32.8486 121.759 32.0847C123.407 31.1816 125.256 30.7127 127.306 30.6779C129.357 30.644 131.315 31.0259 133.183 31.8246C134.428 32.3458 135.545 33.0492 136.534 33.9349C137.524 34.8206 138.273 35.8895 138.787 37.1398C138.932 37.4521 139.052 37.835 139.144 38.2865C139.234 38.7381 139.299 39.2162 139.336 39.72C139.372 40.2237 139.372 40.7192 139.336 41.2047C139.299 41.692 139.207 42.1252 139.062 42.5072C138.842 43.1328 138.567 43.6191 138.238 43.9663C137.909 44.3143 137.487 44.5744 136.975 44.7475C136.461 44.9216 135.849 45.0343 135.134 45.0865C134.42 45.1387 133.57 45.1826 132.58 45.2165C131.702 45.2513 130.877 45.2687 130.109 45.2687C129.34 45.2687 128.551 45.2605 127.747 45.2431C126.941 45.2257 126.108 45.2092 125.248 45.1908C124.387 45.1734 123.426 45.1478 122.364 45.113C122.254 45.8082 122.355 46.4072 122.666 46.911C122.977 47.4148 123.408 47.8315 123.957 48.1612C124.506 48.4919 125.128 48.7438 125.824 48.9169C126.519 49.0909 127.197 49.1954 127.856 49.2292C129.101 49.2989 130.291 49.2036 131.426 48.9425C132.561 48.6824 133.734 48.3783 134.941 48.0303L134.939 48.0312ZM132.578 37.9211C131.882 37.1572 131.15 36.6012 130.381 36.2531C129.795 36.0104 129.181 35.8969 128.541 35.9143C127.9 35.9326 127.286 36.0278 126.701 36.2009C125.638 36.4446 124.741 36.9657 124.009 37.7644C123.936 37.834 123.807 37.9989 123.625 38.26C123.442 38.5201 123.268 38.7903 123.103 39.0678C122.938 39.3462 122.819 39.6064 122.746 39.8491C122.672 40.0928 122.709 40.2137 122.856 40.2137H133.621C133.584 39.7273 133.492 39.3197 133.347 38.989C133.2 38.6593 132.943 38.303 132.578 37.9211Z" fill="#FFFFFC"/>
<path opacity="0.6" d="M62 40.5C62 49.6125 54.1648 57 44.5 57C34.8352 57 27 49.6125 27 40.5C27 38.43 27.4039 36.4491 28.1419 34.6241C29.4429 36.5533 31.7312 37.8333 34.3359 37.8333C35.2241 37.8333 36.0753 37.685 36.8628 37.4117C38.8814 36.7133 40.4838 35.2025 41.2245 33.2992C41.5144 32.5567 41.6717 31.7542 41.6717 30.9167C41.6717 28.4608 40.3141 26.3033 38.2681 25.0767C40.2037 24.3808 42.3045 24 44.5 24C54.1648 24 62 31.3875 62 40.5Z" fill="#FFFFFC"/>
<path d="M44.5 73C39.8438 73 35.3251 72.1403 31.0698 70.4451C26.9609 68.8084 23.2723 66.4649 20.1043 63.4814C16.9364 60.4979 14.4495 57.0223 12.7121 53.1516C10.9126 49.143 10 44.8871 10 40.5C10 36.1129 10.9126 31.857 12.7121 27.8484C14.4495 23.9776 16.9372 20.5029 20.1043 17.5185C23.2714 14.5342 26.9609 12.1916 31.0698 10.5549C35.3251 8.85971 39.8429 8 44.5 8C49.1571 8 53.6749 8.85971 57.9302 10.5549C62.0391 12.1916 65.7277 14.5351 68.8957 17.5185C72.0636 20.502 74.5505 23.9776 76.2879 27.8484C78.0874 31.857 79 36.1129 79 40.5C79 44.8871 78.0874 49.143 76.2879 53.1516C74.5505 57.0223 72.0628 60.4971 68.8957 63.4814C65.7286 66.4657 62.0391 68.8084 57.9302 70.4451C53.6749 72.1403 49.1571 73 44.5 73ZM44.5 13.0129C28.4109 13.0129 15.3213 25.3436 15.3213 40.5C15.3213 55.6564 28.4109 67.9871 44.5 67.9871C60.5891 67.9871 73.6787 55.6564 73.6787 40.5C73.6787 25.3436 60.5891 13.0129 44.5 13.0129Z" fill="#FFFFFC"/>
<path d="M53 40.5C53 44.6418 49.194 48 44.5 48C39.806 48 36 44.6418 36 40.5C36 39.45 36.2441 38.4503 36.6863 37.5431C38.7516 36.8745 40.3911 35.4279 41.1488 33.6056C42.177 33.2154 43.31 33 44.5 33C49.194 33 53 36.3574 53 40.5Z" fill="#2B616D"/>
<circle cx="34.5" cy="31.5" r="7.5" fill="white"/>
<defs>
<filter id="filter0_b_200_128" x="-80" y="-80" width="430" height="242" filterUnits="userSpaceOnUse" color-interpolation-filters="sRGB">
<feFlood flood-opacity="0" result="BackgroundImageFix"/>
<feGaussianBlur in="BackgroundImageFix" stdDeviation="40"/>
<feComposite in2="SourceAlpha" operator="in" result="effect1_backgroundBlur_200_128"/>
<feBlend mode="normal" in="SourceGraphic" in2="effect1_backgroundBlur_200_128" result="shape"/>
</filter>
</defs>
</svg>
