<svg width="173" height="76" viewBox="0 0 173 76" fill="none" xmlns="http://www.w3.org/2000/svg">
<path d="M102.463 12.1462C102.756 12.8066 102.784 13.5366 102.545 14.3353C102.307 15.1349 101.876 15.6561 101.255 15.8988C100.925 16.038 100.485 16.1516 99.9368 16.2377C99.3875 16.3247 98.7919 16.4026 98.1518 16.4722C97.5108 16.5418 96.8794 16.594 96.2567 16.6288C95.6341 16.6636 95.1031 16.681 94.6638 16.681C94.6996 17.7234 94.7372 18.7914 94.7739 19.8859C94.8096 20.9805 94.8473 22.0484 94.8839 23.0907C94.9197 24.1331 94.939 25.1324 94.939 26.0868C94.939 27.0412 94.9197 27.9022 94.8839 28.6661V30.464C94.8839 31.1418 94.8376 31.7931 94.7469 32.4187C94.6551 33.0443 94.5181 33.5911 94.3346 34.06C94.1512 34.529 93.8761 34.834 93.5111 34.9723C92.3758 35.4229 91.3419 35.5539 90.4074 35.3634C89.4739 35.172 88.8048 34.7992 88.4023 34.2432C88.1088 33.7926 87.8887 33.2622 87.7429 32.6541C87.5962 32.0468 87.4958 31.4212 87.4407 30.7782C87.3857 30.1362 87.3674 29.5106 87.3857 28.9024C87.4041 28.2951 87.4127 27.7648 87.4127 27.3132C87.4485 25.8541 87.4765 24.1954 87.4948 22.3369C87.5131 20.4785 87.5218 18.6109 87.5218 16.735H86.6983C86.2591 16.735 85.7001 16.7268 85.0234 16.7094C84.3457 16.692 83.668 16.6398 82.9912 16.5528C82.3135 16.4667 81.6812 16.344 81.0962 16.1883C80.5102 16.0316 80.0883 15.7971 79.8325 15.4848C79.4289 15.0342 79.1818 14.5469 79.091 14.0257C78.9993 13.5046 79.036 13.01 79.2011 12.541C79.3662 12.0721 79.6307 11.6553 79.9975 11.2907C80.3634 10.9262 80.7843 10.6917 81.2612 10.5873C81.9206 10.4142 82.8541 10.3189 84.0628 10.3006C85.2715 10.2832 86.4058 10.2924 87.4678 10.3263C87.4311 9.97912 87.4127 9.64024 87.4127 9.3105C87.4127 8.98077 87.3934 8.65925 87.3577 8.346C87.321 7.92924 87.3027 7.39982 87.3027 6.75684C87.3027 6.11385 87.3481 5.47179 87.4398 4.82881C87.5305 4.18673 87.6869 3.57762 87.907 3.00516C88.1271 2.43179 88.437 1.98941 88.8406 1.67616C89.3899 1.25941 89.9479 1.02491 90.5155 0.972703C91.0832 0.920494 91.6141 0.998354 92.1084 1.20719C92.6027 1.41602 93.0236 1.72011 93.3721 2.11946C93.7197 2.51881 93.9668 2.96214 94.1136 3.44851C94.2236 3.86526 94.3144 4.36078 94.3877 4.93324C94.4611 5.50661 94.5065 6.10562 94.5248 6.73121C94.5432 7.35679 94.5518 7.98146 94.5518 8.60705V10.3272H95.1012C95.6505 10.3272 96.2905 10.3098 97.0233 10.275C97.755 10.2411 98.4791 10.2575 99.1925 10.3272C99.9069 10.3968 100.557 10.5617 101.143 10.8218C101.728 11.0819 102.167 11.5252 102.46 12.1508L102.463 12.1462Z" fill="#59D1F6"/>
<path d="M123.939 27.9883C124.379 27.8839 124.827 27.8151 125.285 27.7794C125.743 27.7455 126.164 27.7977 126.549 27.936C126.933 28.0753 127.254 28.3098 127.51 28.6395C127.766 28.9701 127.895 29.43 127.895 30.0207C127.895 30.4375 127.785 30.8377 127.565 31.2197C127.345 31.6025 127.071 31.9488 126.742 32.262C126.413 32.5753 126.046 32.8446 125.643 33.0699C125.24 33.2961 124.856 33.4784 124.49 33.6167C123.427 34.0682 122.21 34.4163 120.838 34.659C119.465 34.9027 118.045 34.9897 116.581 34.9192C114.604 34.8495 112.709 34.4758 110.896 33.799C109.083 33.1212 107.664 32.001 106.64 30.4375C105.687 28.9088 105.12 27.207 104.937 25.3302C104.753 23.4544 104.845 21.682 105.211 20.015C105.613 18.0009 106.3 16.3586 107.271 15.09C108.241 13.8224 109.403 12.8057 110.759 12.0418C112.407 11.1387 114.256 10.6697 116.306 10.6349C118.357 10.601 120.315 10.983 122.183 11.7817C123.428 12.3029 124.545 13.0063 125.534 13.892C126.524 14.7777 127.273 15.8466 127.787 17.0969C127.932 17.4092 128.052 17.792 128.144 18.2436C128.234 18.6952 128.299 19.1733 128.336 19.677C128.372 20.1808 128.372 20.6763 128.336 21.1618C128.299 21.649 128.207 22.0823 128.062 22.4643C127.842 23.0898 127.567 23.5762 127.238 23.9234C126.909 24.2714 126.487 24.5315 125.975 24.7046C125.461 24.8787 124.849 24.9913 124.134 25.0435C123.42 25.0958 122.57 25.1397 121.58 25.1736C120.702 25.2084 119.877 25.2258 119.109 25.2258C118.34 25.2258 117.551 25.2176 116.747 25.2002C115.941 25.1828 115.108 25.1662 114.248 25.1479C113.387 25.1305 112.426 25.1049 111.364 25.0701C111.254 25.7653 111.355 26.3643 111.666 26.8681C111.977 27.3718 112.408 27.7886 112.957 28.1183C113.506 28.449 114.128 28.7009 114.824 28.874C115.519 29.048 116.197 29.1524 116.856 29.1863C118.101 29.2559 119.291 29.1606 120.426 28.8996C121.561 28.6395 122.734 28.3354 123.941 27.9873L123.939 27.9883ZM121.578 17.8782C120.882 17.1143 120.15 16.5583 119.381 16.2102C118.795 15.9675 118.181 15.8539 117.541 15.8713C116.9 15.8897 116.286 15.9849 115.701 16.158C114.638 16.4017 113.741 16.9228 113.009 17.7215C112.936 17.7911 112.807 17.956 112.625 18.217C112.442 18.4772 112.268 18.7474 112.103 19.0249C111.938 19.3033 111.819 19.5635 111.746 19.8062C111.672 20.0498 111.709 20.1707 111.856 20.1707H122.621C122.584 19.6844 122.492 19.2768 122.347 18.9461C122.2 18.6164 121.943 18.2601 121.578 17.8782Z" fill="#59D1F6"/>
<path d="M104.778 43.8679C104.924 44.2847 104.961 44.7536 104.888 45.2748C104.815 45.7959 104.687 46.3263 104.504 46.8639C104.321 47.4034 104.11 47.9236 103.873 48.4274C103.634 48.9312 103.424 49.3745 103.241 49.7564C102.289 51.5984 101.392 53.4046 100.55 55.1761C99.7071 56.9475 98.7185 58.8764 97.5842 60.9602C97.364 61.3769 97.1169 61.8725 96.8427 62.4449C96.5686 63.0183 96.2664 63.5743 95.9362 64.1128C95.607 64.6514 95.2498 65.1469 94.8656 65.5976C94.4814 66.0491 94.0692 66.3789 93.6299 66.5877C93.263 66.7965 92.8972 66.8826 92.5313 66.8478C92.2378 66.9174 91.9086 66.8295 91.5427 66.5877C91.1035 66.3789 90.6912 66.0491 90.307 65.5976C89.9228 65.1469 89.5656 64.6514 89.2364 64.1128C88.9072 63.5743 88.605 63.0183 88.3299 62.4449C88.0557 61.8715 87.8076 61.3769 87.5884 60.9602C87.1492 60.1615 86.737 59.415 86.3527 58.7198C85.9685 58.0255 85.565 57.2699 85.1441 56.4529C84.7232 55.6368 84.2559 54.6988 83.7433 53.6391C83.2297 52.5793 82.6263 51.286 81.9303 49.7564C81.7468 49.3397 81.546 48.9055 81.3259 48.454C81.1058 48.0033 80.9137 47.516 80.7496 46.9949C80.5845 46.4737 80.4754 45.9443 80.4204 45.4057C80.3654 44.8671 80.3934 44.3203 80.5024 43.7644C80.6125 43.2432 80.8867 42.8265 81.3259 42.5141C81.7652 42.2018 82.2595 41.9929 82.8088 41.8885C83.3581 41.7841 83.9074 41.7933 84.4567 41.9142C85.006 42.036 85.4453 42.2705 85.7745 42.6176C86.1037 42.9299 86.4145 43.3476 86.708 43.8679C87.0005 44.3891 87.2844 44.9359 87.5595 45.5093C87.8337 46.0826 88.0895 46.656 88.3289 47.2294C88.5664 47.8027 88.7962 48.2973 89.0153 48.7141C89.5279 49.7225 90.1043 50.8162 90.7453 51.9968C91.3854 53.1784 91.9627 54.2729 92.4753 55.2795C92.8412 54.4808 93.1704 53.8122 93.4638 53.2737C93.7564 52.7351 94.0402 52.2057 94.3153 51.6845C94.5895 51.1633 94.883 50.5899 95.1938 49.9643C95.5047 49.3388 95.8986 48.5401 96.3745 47.5673C96.8138 46.6642 97.2617 45.7785 97.7203 44.9093C98.1779 44.041 98.7368 43.2771 99.3952 42.6167C99.7244 42.2696 100.145 42.0351 100.659 41.9133C101.172 41.7924 101.703 41.7832 102.252 41.8876C102.801 41.9921 103.304 42.2091 103.763 42.5389C104.22 42.8695 104.559 43.3128 104.779 43.8679H104.778Z" fill="#59D1F6"/>
<path d="M126.694 59.5533C127.133 59.4489 127.581 59.3802 128.039 59.3445C128.497 59.3106 128.918 59.3628 129.303 59.5011C129.687 59.6403 130.008 59.8748 130.265 60.2046C130.521 60.5352 130.649 60.995 130.649 61.5858C130.649 62.0025 130.539 62.4028 130.32 62.7847C130.1 63.1676 129.825 63.5138 129.496 63.8271C129.167 64.1403 128.8 64.4096 128.398 64.635C127.994 64.8612 127.61 65.0434 127.244 65.1817C126.181 65.6333 124.965 65.9813 123.592 66.2241C122.219 66.4677 120.799 66.5548 119.335 66.4842C117.358 66.4146 115.463 66.0409 113.65 65.364C111.837 64.6862 110.418 63.566 109.394 62.0025C108.441 60.4738 107.874 58.772 107.691 56.8953C107.507 55.0194 107.599 53.2471 107.965 51.5801C108.368 49.5659 109.054 47.9237 110.025 46.6551C110.995 45.3874 112.158 44.3708 113.513 43.6069C115.161 42.7037 117.01 42.2348 119.06 42.2C121.111 42.1661 123.07 42.548 124.938 43.3467C126.182 43.8679 127.299 44.5713 128.289 45.457C129.278 46.3427 130.027 47.4117 130.541 48.6619C130.687 48.9742 130.806 49.3571 130.898 49.8087C130.989 50.2602 131.053 50.7383 131.09 51.2421C131.126 51.7459 131.126 52.2414 131.09 52.7268C131.053 53.2141 130.962 53.6474 130.816 54.0293C130.596 54.6549 130.322 55.1412 129.992 55.4884C129.663 55.8364 129.241 56.0966 128.729 56.2697C128.215 56.4437 127.603 56.5564 126.889 56.6086C126.174 56.6608 125.324 56.7047 124.334 56.7386C123.456 56.7734 122.631 56.7909 121.863 56.7909C121.094 56.7909 120.306 56.7826 119.502 56.7652C118.695 56.7478 117.862 56.7313 117.002 56.713C116.141 56.6956 115.18 56.6699 114.118 56.6351C114.008 57.3303 114.109 57.9293 114.421 58.4331C114.732 58.9369 115.162 59.3537 115.711 59.6834C116.261 60.014 116.882 60.2659 117.578 60.439C118.274 60.6131 118.951 60.7175 119.611 60.7513C120.855 60.821 122.045 60.7257 123.181 60.4647C124.315 60.2045 125.488 59.9005 126.696 59.5524L126.694 59.5533ZM124.332 49.4432C123.636 48.6793 122.905 48.1233 122.135 47.7753C121.549 47.5325 120.935 47.419 120.295 47.4364C119.654 47.4547 119.04 47.55 118.455 47.7231C117.392 47.9667 116.495 48.4879 115.764 49.2866C115.69 49.3562 115.562 49.5211 115.379 49.7821C115.196 50.0422 115.022 50.3124 114.857 50.5899C114.692 50.8684 114.573 51.1285 114.5 51.3713C114.426 51.6149 114.463 51.7358 114.61 51.7358H125.375C125.338 51.2494 125.247 50.8418 125.101 50.5112C124.954 50.1814 124.697 49.8251 124.332 49.4432Z" fill="#59D1F6"/>
<path d="M142.188 49.064V61.8835C142.152 62.9258 142.087 64.0377 141.996 65.2184C141.905 66.3999 141.722 67.5632 141.447 68.7099C141.173 69.8567 140.741 70.9247 140.156 71.9148C139.57 72.9049 138.764 73.7302 137.74 74.3906C136.568 75.1197 135.286 75.5968 133.895 75.824C132.503 76.0493 131.148 75.9715 129.83 75.5895C129.024 75.4155 128.246 75.1545 127.496 74.8082C126.745 74.4602 126.114 74.0086 125.601 73.4536C124.942 72.7932 124.466 72.0027 124.173 71.0822C123.88 70.1617 124.063 69.3026 124.722 68.5029C125.162 67.9818 125.701 67.6428 126.342 67.4871C126.982 67.3305 127.614 67.4093 128.237 67.7216C128.822 68.0001 129.391 68.2776 129.94 68.5551C130.49 68.8336 131.039 69.0159 131.588 69.102C132.138 69.189 132.687 69.1367 133.236 68.9453C133.786 68.7548 134.335 68.3463 134.884 67.7207C135.14 67.4084 135.332 66.9568 135.46 66.3661C135.588 65.7753 135.681 65.124 135.735 64.4114C135.79 63.6997 135.817 62.9872 135.817 62.2746V53.5979C135.817 53.1812 135.797 52.5556 135.762 51.7221C135.725 50.8886 135.715 50.0111 135.735 49.0905C135.753 48.17 135.825 47.3109 135.955 46.5113C136.082 45.7126 136.293 45.1392 136.586 44.7911C137.061 44.2013 137.675 43.8972 138.426 43.8789C139.176 43.8615 139.863 44.0437 140.486 44.4257C140.889 44.6693 141.201 44.9725 141.42 45.338C141.64 45.7025 141.804 46.0936 141.914 46.5103C142.024 46.9271 142.097 47.353 142.134 47.7872C142.17 48.2222 142.189 48.6473 142.189 49.064H142.188Z" fill="#59D1F6"/>
<path d="M153.997 44.3203C155.206 43.7653 156.468 43.365 157.787 43.1213C159.105 42.8786 160.414 42.8264 161.714 42.9647C163.014 43.1039 164.278 43.4337 165.505 43.9549C166.731 44.476 167.857 45.2051 168.882 46.1439C169.724 46.9435 170.456 47.908 171.08 49.0365C171.701 50.1658 172.159 51.2695 172.453 52.3457C173.075 54.2564 173.167 56.1854 172.727 58.1299C172.287 60.0763 171.536 61.8816 170.474 63.5495C169.961 64.3143 169.329 65.0003 168.579 65.6076C167.828 66.2158 167.032 66.7113 166.19 67.0923C165.091 67.5796 163.901 67.9176 162.62 68.1081C161.338 68.2986 160.094 68.3426 158.885 68.2382C156.688 68.1338 154.756 67.6126 153.091 66.6747C151.424 65.7368 150.087 64.5378 149.081 63.0787C148.073 61.6196 147.415 59.9608 147.104 58.1024C146.792 56.244 146.912 54.3425 147.461 52.3961C148.046 50.3115 148.898 48.6179 150.016 47.3154C151.133 46.013 152.46 45.0146 153.998 44.3194L153.997 44.3203ZM155.645 51.3034C155.096 51.7907 154.675 52.398 154.381 53.1271C154.088 53.8561 153.905 54.6118 153.832 55.394C153.759 56.1753 153.822 56.9575 154.024 57.7388C154.225 58.5201 154.545 59.2235 154.986 59.8491C155.351 60.3703 156.01 60.8053 156.963 61.1516C157.915 61.4996 158.903 61.7076 159.928 61.7772C161.099 61.8468 162.126 61.5427 163.004 60.8649C163.883 60.1871 164.551 59.3454 165.009 58.3378C165.467 57.3303 165.677 56.2366 165.641 55.0551C165.604 53.8744 165.274 52.7973 164.652 51.8246C164.213 51.1303 163.599 50.6183 162.812 50.2877C162.024 49.9579 161.2 49.7848 160.341 49.7665C159.48 49.7491 158.629 49.8709 157.786 50.131C156.943 50.3912 156.229 50.7822 155.644 51.3034H155.645Z" fill="#59D1F6"/>
<path d="M56.6697 36.1896C56.6697 46.2053 48.1115 54.3251 37.5549 54.3251C26.9983 54.3251 18.44 46.2053 18.44 36.1896C18.44 33.9144 18.8812 31.7372 19.6873 29.7313C21.1084 31.8517 23.6078 33.2586 26.4528 33.2586C27.423 33.2586 28.3527 33.0955 29.2129 32.7951C31.4178 32.0275 33.1681 30.3669 33.9771 28.2749C34.2937 27.4588 34.4656 26.5768 34.4656 25.6563C34.4656 22.957 32.9827 20.5857 30.7479 19.2374C32.8621 18.4726 35.1568 18.054 37.5549 18.054C48.1115 18.054 56.6697 26.1738 56.6697 36.1896Z" fill="#59D1F6"/>
<path d="M37.5539 71.8195C32.4856 71.8195 27.5669 70.877 22.9349 69.0186C18.4622 67.2243 14.4471 64.6551 10.9988 61.3842C7.55036 58.1134 4.84339 54.3031 2.95218 50.0596C0.993392 45.6649 0 40.9992 0 36.1896C0 31.38 0.993392 26.7142 2.95218 22.3195C4.84339 18.076 7.55133 14.2666 10.9988 10.9949C14.4462 7.72314 18.4622 5.15489 22.9349 3.36057C27.5669 1.50213 32.4846 0.559624 37.5539 0.559624C42.6232 0.559624 47.5409 1.50213 52.1729 3.36057C56.6456 5.15489 60.6606 7.72405 64.109 10.9949C67.5574 14.2657 70.2644 18.076 72.1556 22.3195C74.1144 26.7142 75.1078 31.38 75.1078 36.1896C75.1078 40.9992 74.1144 45.6649 72.1556 50.0596C70.2644 54.3031 67.5565 58.1125 64.109 61.3842C60.6616 64.656 56.6456 67.2243 52.1729 69.0186C47.5409 70.877 42.6232 71.8195 37.5539 71.8195ZM37.5539 6.05525C20.0407 6.05525 5.79238 19.5736 5.79238 36.1896C5.79238 52.8056 20.0407 66.3239 37.5539 66.3239C55.0671 66.3239 69.3154 52.8056 69.3154 36.1896C69.3154 19.5736 55.0671 6.05525 37.5539 6.05525Z" fill="#59D1F6"/>
<path d="M46.6296 36.1896C46.6296 40.9442 42.5662 44.7994 37.5549 44.7994C32.5435 44.7994 28.4801 40.9442 28.4801 36.1896C28.4801 34.9842 28.7408 33.8365 29.2129 32.7951C31.4178 32.0275 33.1681 30.3669 33.9771 28.2749C35.0748 27.827 36.2844 27.5798 37.5549 27.5798C42.5662 27.5798 46.6296 31.434 46.6296 36.1896Z" fill="#2B616D"/>
<path d="M102.463 12.1462C102.756 12.8066 102.784 13.5366 102.545 14.3353C102.307 15.1349 101.876 15.6561 101.255 15.8988C100.925 16.038 100.485 16.1516 99.9368 16.2377C99.3875 16.3247 98.7919 16.4026 98.1518 16.4722C97.5108 16.5418 96.8794 16.594 96.2567 16.6288C95.6341 16.6636 95.1031 16.681 94.6638 16.681C94.6996 17.7234 94.7372 18.7914 94.7739 19.8859C94.8096 20.9805 94.8473 22.0484 94.8839 23.0907C94.9197 24.1331 94.939 25.1324 94.939 26.0868C94.939 27.0412 94.9197 27.9022 94.8839 28.6661V30.464C94.8839 31.1418 94.8376 31.7931 94.7469 32.4187C94.6551 33.0443 94.5181 33.5911 94.3346 34.06C94.1512 34.529 93.8761 34.834 93.5111 34.9723C92.3758 35.4229 91.3419 35.5539 90.4074 35.3634C89.4739 35.172 88.8048 34.7992 88.4023 34.2432C88.1088 33.7926 87.8887 33.2622 87.7429 32.6541C87.5962 32.0468 87.4958 31.4212 87.4407 30.7782C87.3857 30.1362 87.3674 29.5106 87.3857 28.9024C87.4041 28.2951 87.4127 27.7648 87.4127 27.3132C87.4485 25.8541 87.4765 24.1954 87.4948 22.3369C87.5131 20.4785 87.5218 18.6109 87.5218 16.735H86.6983C86.2591 16.735 85.7001 16.7268 85.0234 16.7094C84.3457 16.692 83.668 16.6398 82.9912 16.5528C82.3135 16.4667 81.6812 16.344 81.0962 16.1883C80.5102 16.0316 80.0883 15.7971 79.8325 15.4848C79.4289 15.0342 79.1818 14.5469 79.091 14.0257C78.9993 13.5046 79.036 13.01 79.2011 12.541C79.3662 12.0721 79.6307 11.6553 79.9975 11.2907C80.3634 10.9262 80.7843 10.6917 81.2612 10.5873C81.9206 10.4142 82.8541 10.3189 84.0628 10.3006C85.2715 10.2832 86.4058 10.2924 87.4678 10.3263C87.4311 9.97912 87.4127 9.64024 87.4127 9.3105C87.4127 8.98077 87.3934 8.65925 87.3577 8.346C87.321 7.92924 87.3027 7.39982 87.3027 6.75684C87.3027 6.11385 87.3481 5.47179 87.4398 4.82881C87.5305 4.18673 87.6869 3.57762 87.907 3.00516C88.1271 2.43179 88.437 1.98941 88.8406 1.67616C89.3899 1.25941 89.9479 1.02491 90.5155 0.972703C91.0832 0.920494 91.6141 0.998354 92.1084 1.20719C92.6027 1.41602 93.0236 1.72011 93.3721 2.11946C93.7197 2.51881 93.9668 2.96214 94.1136 3.44851C94.2236 3.86526 94.3144 4.36078 94.3877 4.93324C94.4611 5.50661 94.5065 6.10562 94.5248 6.73121C94.5432 7.35679 94.5518 7.98146 94.5518 8.60705V10.3272H95.1012C95.6505 10.3272 96.2905 10.3098 97.0233 10.275C97.755 10.2411 98.4791 10.2575 99.1925 10.3272C99.9069 10.3968 100.557 10.5617 101.143 10.8218C101.728 11.0819 102.167 11.5252 102.46 12.1508L102.463 12.1462Z" fill="#59D1F6"/>
<path d="M123.939 27.9883C124.379 27.8839 124.827 27.8151 125.285 27.7794C125.743 27.7455 126.164 27.7977 126.549 27.936C126.933 28.0753 127.254 28.3098 127.51 28.6395C127.766 28.9701 127.895 29.43 127.895 30.0207C127.895 30.4375 127.785 30.8377 127.565 31.2197C127.345 31.6025 127.071 31.9488 126.742 32.262C126.413 32.5753 126.046 32.8446 125.643 33.0699C125.24 33.2961 124.856 33.4784 124.49 33.6167C123.427 34.0682 122.21 34.4163 120.838 34.659C119.465 34.9027 118.045 34.9897 116.581 34.9192C114.604 34.8495 112.709 34.4758 110.896 33.799C109.083 33.1212 107.664 32.001 106.64 30.4375C105.687 28.9088 105.12 27.207 104.937 25.3302C104.753 23.4544 104.845 21.682 105.211 20.015C105.613 18.0009 106.3 16.3586 107.271 15.09C108.241 13.8224 109.403 12.8057 110.759 12.0418C112.407 11.1387 114.256 10.6697 116.306 10.6349C118.357 10.601 120.315 10.983 122.183 11.7817C123.428 12.3029 124.545 13.0063 125.534 13.892C126.524 14.7777 127.273 15.8466 127.787 17.0969C127.932 17.4092 128.052 17.792 128.144 18.2436C128.234 18.6952 128.299 19.1733 128.336 19.677C128.372 20.1808 128.372 20.6763 128.336 21.1618C128.299 21.649 128.207 22.0823 128.062 22.4643C127.842 23.0898 127.567 23.5762 127.238 23.9234C126.909 24.2714 126.487 24.5315 125.975 24.7046C125.461 24.8787 124.849 24.9913 124.134 25.0435C123.42 25.0958 122.57 25.1397 121.58 25.1736C120.702 25.2084 119.877 25.2258 119.109 25.2258C118.34 25.2258 117.551 25.2176 116.747 25.2002C115.941 25.1828 115.108 25.1662 114.248 25.1479C113.387 25.1305 112.426 25.1049 111.364 25.0701C111.254 25.7653 111.355 26.3643 111.666 26.8681C111.977 27.3718 112.408 27.7886 112.957 28.1183C113.506 28.449 114.128 28.7009 114.824 28.874C115.519 29.048 116.197 29.1524 116.856 29.1863C118.101 29.2559 119.291 29.1606 120.426 28.8996C121.561 28.6395 122.734 28.3354 123.941 27.9873L123.939 27.9883ZM121.578 17.8782C120.882 17.1143 120.15 16.5583 119.381 16.2102C118.795 15.9675 118.181 15.8539 117.541 15.8713C116.9 15.8897 116.286 15.9849 115.701 16.158C114.638 16.4017 113.741 16.9228 113.009 17.7215C112.936 17.7911 112.807 17.956 112.625 18.217C112.442 18.4772 112.268 18.7474 112.103 19.0249C111.938 19.3033 111.819 19.5635 111.746 19.8062C111.672 20.0498 111.709 20.1707 111.856 20.1707H122.621C122.584 19.6844 122.492 19.2768 122.347 18.9461C122.2 18.6164 121.943 18.2601 121.578 17.8782Z" fill="#59D1F6"/>
<path d="M104.778 43.8679C104.924 44.2847 104.961 44.7536 104.888 45.2748C104.815 45.7959 104.687 46.3263 104.504 46.8639C104.321 47.4034 104.11 47.9236 103.873 48.4274C103.634 48.9312 103.424 49.3745 103.241 49.7564C102.289 51.5984 101.392 53.4046 100.55 55.1761C99.7071 56.9475 98.7185 58.8764 97.5842 60.9602C97.364 61.3769 97.1169 61.8725 96.8427 62.4449C96.5686 63.0183 96.2664 63.5743 95.9362 64.1128C95.607 64.6514 95.2498 65.1469 94.8656 65.5976C94.4814 66.0491 94.0692 66.3789 93.6299 66.5877C93.263 66.7965 92.8972 66.8826 92.5313 66.8478C92.2378 66.9174 91.9086 66.8295 91.5427 66.5877C91.1035 66.3789 90.6912 66.0491 90.307 65.5976C89.9228 65.1469 89.5656 64.6514 89.2364 64.1128C88.9072 63.5743 88.605 63.0183 88.3299 62.4449C88.0557 61.8715 87.8076 61.3769 87.5884 60.9602C87.1492 60.1615 86.737 59.415 86.3527 58.7198C85.9685 58.0255 85.565 57.2699 85.1441 56.4529C84.7232 55.6368 84.2559 54.6988 83.7433 53.6391C83.2297 52.5793 82.6263 51.286 81.9303 49.7564C81.7468 49.3397 81.546 48.9055 81.3259 48.454C81.1058 48.0033 80.9137 47.516 80.7496 46.9949C80.5845 46.4737 80.4754 45.9443 80.4204 45.4057C80.3654 44.8671 80.3934 44.3203 80.5024 43.7644C80.6125 43.2432 80.8867 42.8265 81.3259 42.5141C81.7652 42.2018 82.2595 41.9929 82.8088 41.8885C83.3581 41.7841 83.9074 41.7933 84.4567 41.9142C85.006 42.036 85.4453 42.2705 85.7745 42.6176C86.1037 42.9299 86.4145 43.3476 86.708 43.8679C87.0005 44.3891 87.2844 44.9359 87.5595 45.5093C87.8337 46.0826 88.0895 46.656 88.3289 47.2294C88.5664 47.8027 88.7962 48.2973 89.0153 48.7141C89.5279 49.7225 90.1043 50.8162 90.7453 51.9968C91.3854 53.1784 91.9627 54.2729 92.4753 55.2795C92.8412 54.4808 93.1704 53.8122 93.4638 53.2737C93.7564 52.7351 94.0402 52.2057 94.3153 51.6845C94.5895 51.1633 94.883 50.5899 95.1938 49.9643C95.5047 49.3388 95.8986 48.5401 96.3745 47.5673C96.8138 46.6642 97.2617 45.7785 97.7203 44.9093C98.1779 44.041 98.7368 43.2771 99.3952 42.6167C99.7244 42.2696 100.145 42.0351 100.659 41.9133C101.172 41.7924 101.703 41.7832 102.252 41.8876C102.801 41.9921 103.304 42.2091 103.763 42.5389C104.22 42.8695 104.559 43.3128 104.779 43.8679H104.778Z" fill="#59D1F6"/>
<path d="M126.694 59.5533C127.133 59.4489 127.581 59.3802 128.039 59.3445C128.497 59.3106 128.918 59.3628 129.303 59.5011C129.687 59.6403 130.008 59.8748 130.265 60.2046C130.521 60.5352 130.649 60.995 130.649 61.5858C130.649 62.0025 130.539 62.4028 130.32 62.7847C130.1 63.1676 129.825 63.5138 129.496 63.8271C129.167 64.1403 128.8 64.4096 128.398 64.635C127.994 64.8612 127.61 65.0434 127.244 65.1817C126.181 65.6333 124.965 65.9813 123.592 66.2241C122.219 66.4677 120.799 66.5548 119.335 66.4842C117.358 66.4146 115.463 66.0409 113.65 65.364C111.837 64.6862 110.418 63.566 109.394 62.0025C108.441 60.4738 107.874 58.772 107.691 56.8953C107.507 55.0194 107.599 53.2471 107.965 51.5801C108.368 49.5659 109.054 47.9237 110.025 46.6551C110.995 45.3874 112.158 44.3708 113.513 43.6069C115.161 42.7037 117.01 42.2348 119.06 42.2C121.111 42.1661 123.07 42.548 124.938 43.3467C126.182 43.8679 127.299 44.5713 128.289 45.457C129.278 46.3427 130.027 47.4117 130.541 48.6619C130.687 48.9742 130.806 49.3571 130.898 49.8087C130.989 50.2602 131.053 50.7383 131.09 51.2421C131.126 51.7459 131.126 52.2414 131.09 52.7268C131.053 53.2141 130.962 53.6474 130.816 54.0293C130.596 54.6549 130.322 55.1412 129.992 55.4884C129.663 55.8364 129.241 56.0966 128.729 56.2697C128.215 56.4437 127.603 56.5564 126.889 56.6086C126.174 56.6608 125.324 56.7047 124.334 56.7386C123.456 56.7734 122.631 56.7909 121.863 56.7909C121.094 56.7909 120.306 56.7826 119.502 56.7652C118.695 56.7478 117.862 56.7313 117.002 56.713C116.141 56.6956 115.18 56.6699 114.118 56.6351C114.008 57.3303 114.109 57.9293 114.421 58.4331C114.732 58.9369 115.162 59.3537 115.711 59.6834C116.261 60.014 116.882 60.2659 117.578 60.439C118.274 60.6131 118.951 60.7175 119.611 60.7513C120.855 60.821 122.045 60.7257 123.181 60.4647C124.315 60.2045 125.488 59.9005 126.696 59.5524L126.694 59.5533ZM124.332 49.4432C123.636 48.6793 122.905 48.1233 122.135 47.7753C121.549 47.5325 120.935 47.419 120.295 47.4364C119.654 47.4547 119.04 47.55 118.455 47.7231C117.392 47.9667 116.495 48.4879 115.764 49.2866C115.69 49.3562 115.562 49.5211 115.379 49.7821C115.196 50.0422 115.022 50.3124 114.857 50.5899C114.692 50.8684 114.573 51.1285 114.5 51.3713C114.426 51.6149 114.463 51.7358 114.61 51.7358H125.375C125.338 51.2494 125.247 50.8418 125.101 50.5112C124.954 50.1814 124.697 49.8251 124.332 49.4432Z" fill="#59D1F6"/>
<path d="M142.188 49.064V61.8835C142.152 62.9258 142.087 64.0377 141.996 65.2184C141.905 66.3999 141.722 67.5632 141.447 68.7099C141.173 69.8567 140.741 70.9247 140.156 71.9148C139.57 72.9049 138.764 73.7302 137.74 74.3906C136.568 75.1197 135.286 75.5968 133.895 75.824C132.503 76.0493 131.148 75.9715 129.83 75.5895C129.024 75.4155 128.246 75.1545 127.496 74.8082C126.745 74.4602 126.114 74.0086 125.601 73.4536C124.942 72.7932 124.466 72.0027 124.173 71.0822C123.88 70.1617 124.063 69.3026 124.722 68.5029C125.162 67.9818 125.701 67.6428 126.342 67.4871C126.982 67.3305 127.614 67.4093 128.237 67.7216C128.822 68.0001 129.391 68.2776 129.94 68.5551C130.49 68.8336 131.039 69.0159 131.588 69.102C132.138 69.189 132.687 69.1367 133.236 68.9453C133.786 68.7548 134.335 68.3463 134.884 67.7207C135.14 67.4084 135.332 66.9568 135.46 66.3661C135.588 65.7753 135.681 65.124 135.735 64.4114C135.79 63.6997 135.817 62.9872 135.817 62.2746V53.5979C135.817 53.1812 135.797 52.5556 135.762 51.7221C135.725 50.8886 135.715 50.0111 135.735 49.0905C135.753 48.17 135.825 47.3109 135.955 46.5113C136.082 45.7126 136.293 45.1392 136.586 44.7911C137.061 44.2013 137.675 43.8972 138.426 43.8789C139.176 43.8615 139.863 44.0437 140.486 44.4257C140.889 44.6693 141.201 44.9725 141.42 45.338C141.64 45.7025 141.804 46.0936 141.914 46.5103C142.024 46.9271 142.097 47.353 142.134 47.7872C142.17 48.2222 142.189 48.6473 142.189 49.064H142.188Z" fill="#59D1F6"/>
<path d="M153.997 44.3203C155.206 43.7653 156.468 43.365 157.787 43.1213C159.105 42.8786 160.414 42.8264 161.714 42.9647C163.014 43.1039 164.278 43.4337 165.505 43.9549C166.731 44.476 167.857 45.2051 168.882 46.1439C169.724 46.9435 170.456 47.908 171.08 49.0365C171.701 50.1658 172.159 51.2695 172.453 52.3457C173.075 54.2564 173.167 56.1854 172.727 58.1299C172.287 60.0763 171.536 61.8816 170.474 63.5495C169.961 64.3143 169.329 65.0003 168.579 65.6076C167.828 66.2158 167.032 66.7113 166.19 67.0923C165.091 67.5796 163.901 67.9176 162.62 68.1081C161.338 68.2986 160.094 68.3426 158.885 68.2382C156.688 68.1338 154.756 67.6126 153.091 66.6747C151.424 65.7368 150.087 64.5378 149.081 63.0787C148.073 61.6196 147.415 59.9608 147.104 58.1024C146.792 56.244 146.912 54.3425 147.461 52.3961C148.046 50.3115 148.898 48.6179 150.016 47.3154C151.133 46.013 152.46 45.0146 153.998 44.3194L153.997 44.3203ZM155.645 51.3034C155.096 51.7907 154.675 52.398 154.381 53.1271C154.088 53.8561 153.905 54.6118 153.832 55.394C153.759 56.1753 153.822 56.9575 154.024 57.7388C154.225 58.5201 154.545 59.2235 154.986 59.8491C155.351 60.3703 156.01 60.8053 156.963 61.1516C157.915 61.4996 158.903 61.7076 159.928 61.7772C161.099 61.8468 162.126 61.5427 163.004 60.8649C163.883 60.1871 164.551 59.3454 165.009 58.3378C165.467 57.3303 165.677 56.2366 165.641 55.0551C165.604 53.8744 165.274 52.7973 164.652 51.8246C164.213 51.1303 163.599 50.6183 162.812 50.2877C162.024 49.9579 161.2 49.7848 160.341 49.7665C159.48 49.7491 158.629 49.8709 157.786 50.131C156.943 50.3912 156.229 50.7822 155.644 51.3034H155.645Z" fill="#59D1F6"/>
</svg>
