<svg width="239" height="65" viewBox="0 0 239 65" fill="none" xmlns="http://www.w3.org/2000/svg">
<path d="M170.385 25.0954C170.531 25.5122 170.568 25.9811 170.495 26.5023C170.422 27.0235 170.294 27.5538 170.111 28.0914C169.928 28.6309 169.717 29.1512 169.48 29.6549C169.241 30.1587 169.031 30.602 168.848 30.9839C167.896 32.8259 166.999 34.6322 166.157 36.4036C165.314 38.175 164.326 40.104 163.191 42.1877C162.971 42.6045 162.724 43.1 162.45 43.6724C162.176 44.2458 161.873 44.8018 161.543 45.3404C161.214 45.8789 160.857 46.3744 160.473 46.8251C160.088 47.2766 159.676 47.6064 159.237 47.8152C158.87 48.0241 158.504 48.1101 158.138 48.0753C157.845 48.1449 157.516 48.057 157.15 47.8152C156.71 47.6064 156.298 47.2766 155.914 46.8251C155.53 46.3744 155.173 45.8789 154.843 45.3404C154.514 44.8018 154.212 44.2458 153.937 43.6724C153.663 43.0991 153.415 42.6045 153.195 42.1877C152.756 41.389 152.344 40.6425 151.96 39.9473C151.576 39.253 151.172 38.4974 150.751 37.6804C150.33 36.8643 149.863 35.9263 149.35 34.8666C148.837 33.8069 148.233 32.5136 147.537 30.9839C147.354 30.5672 147.153 30.1331 146.933 29.6815C146.713 29.2309 146.521 28.7436 146.357 28.2224C146.192 27.7012 146.082 27.1718 146.027 26.6332C145.972 26.0947 146 25.5479 146.109 24.9919C146.22 24.4707 146.494 24.054 146.933 23.7416C147.372 23.4293 147.867 23.2205 148.416 23.116C148.965 23.0116 149.514 23.0208 150.064 23.1417C150.613 23.2635 151.052 23.498 151.382 23.8451C151.711 24.1575 152.022 24.5752 152.315 25.0954C152.608 25.6166 152.891 26.1634 153.167 26.7368C153.441 27.3101 153.697 27.8835 153.936 28.4569C154.173 29.0303 154.403 29.5249 154.622 29.9416C155.135 30.9501 155.711 32.0437 156.352 33.2244C156.992 34.4059 157.57 35.5005 158.082 36.5071C158.448 35.7084 158.777 35.0397 159.071 34.5012C159.363 33.9626 159.647 33.4332 159.922 32.912C160.197 32.3908 160.49 31.8174 160.801 31.1919C161.112 30.5663 161.506 29.7676 161.982 28.7949C162.421 27.8917 162.869 27.006 163.327 26.1368C163.785 25.2685 164.344 24.5046 165.002 23.8442C165.331 23.4971 165.752 23.2626 166.266 23.1408C166.779 23.0199 167.31 23.0107 167.859 23.1152C168.408 23.2196 168.911 23.4366 169.37 23.7664C169.827 24.097 170.166 24.5404 170.386 25.0954H170.385Z" fill="black"/>
<path d="M192.301 40.7807C192.74 40.6763 193.188 40.6076 193.647 40.5719C194.104 40.538 194.525 40.5902 194.91 40.7285C195.295 40.8677 195.615 41.1022 195.872 41.432C196.128 41.7626 196.256 42.2224 196.256 42.8132C196.256 43.23 196.146 43.6302 195.927 44.0122C195.707 44.395 195.433 44.7412 195.103 45.0545C194.774 45.3677 194.407 45.637 194.005 45.8624C193.601 46.0886 193.217 46.2708 192.851 46.4092C191.788 46.8607 190.572 47.2088 189.199 47.4515C187.826 47.6951 186.406 47.7822 184.943 47.7116C182.966 47.642 181.07 47.2683 179.257 46.5914C177.444 45.9137 176.025 44.7934 175.001 43.2299C174.048 41.7012 173.481 39.9995 173.298 38.1227C173.115 36.2469 173.206 34.4745 173.572 32.8075C173.975 30.7933 174.661 29.1511 175.632 27.8825C176.603 26.6148 177.765 25.5982 179.12 24.8343C180.768 23.9312 182.617 23.4622 184.668 23.4274C186.718 23.3935 188.677 23.7754 190.545 24.5741C191.789 25.0953 192.906 25.7987 193.896 26.6844C194.885 27.5702 195.634 28.6391 196.148 29.8893C196.294 30.2017 196.413 30.5845 196.505 31.0361C196.596 31.4876 196.661 31.9657 196.697 32.4695C196.733 32.9733 196.733 33.4688 196.697 33.9542C196.661 34.4415 196.569 34.8748 196.423 35.2567C196.203 35.8823 195.929 36.3686 195.6 36.7158C195.27 37.0638 194.849 37.324 194.336 37.4971C193.822 37.6711 193.21 37.7838 192.496 37.836C191.782 37.8882 190.931 37.9321 189.941 37.966C189.063 38.0008 188.239 38.0183 187.47 38.0183C186.702 38.0183 185.913 38.01 185.109 37.9926C184.303 37.9752 183.469 37.9587 182.609 37.9404C181.748 37.923 180.788 37.8973 179.726 37.8625C179.616 38.5577 179.716 39.1567 180.028 39.6605C180.339 40.1643 180.769 40.5811 181.319 40.9108C181.868 41.2415 182.49 41.4933 183.186 41.6665C183.881 41.8405 184.558 41.9449 185.218 41.9788C186.462 42.0484 187.653 41.9531 188.788 41.6921C189.922 41.432 191.095 41.1279 192.303 40.7798L192.301 40.7807ZM189.94 30.6706C189.243 29.9067 188.512 29.3507 187.742 29.0027C187.156 28.76 186.542 28.6464 185.902 28.6638C185.261 28.6821 184.647 28.7774 184.062 28.9505C182.999 29.1941 182.102 29.7153 181.371 30.514C181.297 30.5836 181.169 30.7485 180.986 31.0095C180.803 31.2696 180.629 31.5398 180.464 31.8174C180.299 32.0958 180.18 32.356 180.107 32.5987C180.034 32.8423 180.07 32.9632 180.217 32.9632H190.982C190.945 32.4769 190.854 32.0693 190.708 31.7386C190.561 31.4089 190.304 31.0525 189.94 30.6706Z" fill="black"/>
<path d="M207.796 30.2918V43.1112C207.759 44.1535 207.694 45.2655 207.603 46.4461C207.512 47.6277 207.329 48.7909 207.054 49.9377C206.78 51.0844 206.348 52.1524 205.763 53.1426C205.177 54.1327 204.371 54.9579 203.347 55.6183C202.175 56.3474 200.893 56.8246 199.502 57.0517C198.11 57.2771 196.755 57.1992 195.437 56.8173C194.631 56.6432 193.853 56.3822 193.103 56.036C192.352 55.6879 191.721 55.2364 191.208 54.6813C190.549 54.0209 190.073 53.2305 189.78 52.3099C189.487 51.3894 189.67 50.5303 190.33 49.7307C190.769 49.2095 191.308 48.8706 191.949 48.7149C192.59 48.5583 193.221 48.637 193.845 48.9494C194.43 49.2278 194.998 49.5054 195.548 49.7829C196.097 50.0613 196.646 50.2436 197.195 50.3297C197.745 50.4167 198.294 50.3645 198.843 50.173C199.393 49.9825 199.942 49.5741 200.491 48.9485C200.747 48.6361 200.939 48.1846 201.068 47.5938C201.195 47.003 201.288 46.3518 201.342 45.6392C201.397 44.9275 201.424 44.2149 201.424 43.5023V34.8256C201.424 34.4089 201.405 33.7833 201.369 32.9498C201.332 32.1163 201.323 31.2388 201.342 30.3183C201.36 29.3978 201.433 28.5386 201.562 27.739C201.689 26.9403 201.9 26.3669 202.193 26.0189C202.668 25.429 203.282 25.1249 204.033 25.1066C204.783 25.0892 205.47 25.2715 206.094 25.6534C206.496 25.8971 206.808 26.2003 207.027 26.5657C207.247 26.9303 207.411 27.3213 207.521 27.7381C207.631 28.1548 207.704 28.5807 207.741 29.0149C207.777 29.45 207.796 29.875 207.796 30.2918H207.796Z" fill="black"/>
<path d="M219.604 25.5481C220.813 24.993 222.076 24.5928 223.394 24.3491C224.712 24.1064 226.021 24.0542 227.322 24.1925C228.621 24.3317 229.885 24.6615 231.112 25.1826C232.338 25.7038 233.464 26.4329 234.49 27.3717C235.332 28.1713 236.063 29.1358 236.687 30.2642C237.309 31.3936 237.766 32.4973 238.06 33.5735C238.682 35.4842 238.774 37.4132 238.334 39.3577C237.895 41.3041 237.144 43.1094 236.082 44.7773C235.568 45.5421 234.937 46.2281 234.187 46.8354C233.435 47.4435 232.639 47.9391 231.797 48.3201C230.699 48.8074 229.508 49.1454 228.227 49.3359C226.945 49.5264 225.701 49.5704 224.492 49.466C222.295 49.3615 220.363 48.8404 218.698 47.9025C217.031 46.9646 215.694 45.7656 214.688 44.3065C213.681 42.8474 213.022 41.1886 212.711 39.3302C212.399 37.4717 212.519 35.5703 213.069 33.6239C213.654 31.5392 214.505 29.8457 215.623 28.5432C216.74 27.2407 218.067 26.2424 219.605 25.5472L219.604 25.5481ZM221.252 32.5312C220.703 33.0185 220.282 33.6257 219.988 34.3548C219.695 35.0839 219.513 35.8396 219.439 36.6218C219.366 37.4031 219.43 38.1853 219.631 38.9666C219.832 39.7479 220.153 40.4513 220.593 41.0769C220.959 41.5981 221.617 42.0331 222.57 42.3793C223.522 42.7274 224.51 42.9353 225.536 43.0049C226.707 43.0745 227.733 42.7705 228.611 42.0927C229.49 41.4149 230.158 40.5731 230.617 39.5656C231.074 38.5581 231.285 37.4644 231.248 36.2829C231.211 35.1022 230.881 34.0251 230.259 33.0523C229.82 32.3581 229.206 31.8461 228.419 31.5154C227.632 31.1857 226.807 31.0126 225.948 30.9943C225.087 30.9769 224.236 31.0987 223.393 31.3588C222.551 31.6189 221.836 32.01 221.251 32.5312H221.252Z" fill="black"/>
<path d="M103.463 24.1892C103.756 24.8496 103.784 25.5796 103.545 26.3783C103.307 27.1779 102.876 27.6991 102.255 27.9418C101.925 28.081 101.485 28.1946 100.937 28.2807C100.388 28.3677 99.792 28.4456 99.1519 28.5152C98.5109 28.5848 97.8795 28.637 97.2568 28.6718C96.6341 28.7066 96.1032 28.724 95.6639 28.724C95.6996 29.7664 95.7373 30.8344 95.774 31.9289C95.8097 33.0235 95.8474 34.0914 95.884 35.1338C95.9198 36.1761 95.9391 37.1754 95.9391 38.1298C95.9391 39.0842 95.9198 39.9452 95.884 40.7091V42.507C95.884 43.1848 95.8377 43.8361 95.747 44.4617C95.6552 45.0873 95.5182 45.6341 95.3347 46.103C95.1513 46.572 94.8762 46.877 94.5112 47.0153C93.3759 47.466 92.342 47.5969 91.4075 47.4064C90.474 47.215 89.8049 46.8422 89.4024 46.2862C89.1089 45.8356 88.8888 45.3053 88.743 44.6971C88.5963 44.0898 88.4959 43.4642 88.4408 42.8212C88.3858 42.1792 88.3675 41.5536 88.3858 40.9454C88.4042 40.3381 88.4128 39.8078 88.4128 39.3562C88.4486 37.8971 88.4766 36.2384 88.4949 34.3799C88.5132 32.5215 88.5219 30.6539 88.5219 28.7781H87.6984C87.2592 28.7781 86.7002 28.7698 86.0235 28.7524C85.3458 28.735 84.6681 28.6828 83.9913 28.5958C83.3136 28.5097 82.6813 28.387 82.0963 28.2313C81.5103 28.0746 81.0884 27.8401 80.8325 27.5278C80.429 27.0772 80.1819 26.5899 80.0911 26.0688C79.9994 25.5476 80.0361 25.053 80.2012 24.584C80.3663 24.1151 80.6308 23.6983 80.9976 23.3337C81.3635 22.9692 81.7844 22.7347 82.2613 22.6303C82.9207 22.4572 83.8542 22.3619 85.0629 22.3436C86.2716 22.3262 87.4059 22.3354 88.4679 22.3693C88.4312 22.0221 88.4128 21.6832 88.4128 21.3535C88.4128 21.0238 88.3935 20.7023 88.3578 20.389C88.3211 19.9723 88.3028 19.4428 88.3028 18.7998C88.3028 18.1569 88.3482 17.5148 88.4399 16.8718C88.5306 16.2297 88.687 15.6206 88.9071 15.0482C89.1272 14.4748 89.4371 14.0324 89.8407 13.7192C90.39 13.3024 90.948 13.0679 91.5156 13.0157C92.0833 12.9635 92.6142 13.0414 93.1085 13.2502C93.6028 13.459 94.0237 13.7631 94.3722 14.1625C94.7198 14.5618 94.9669 15.0052 95.1137 15.4915C95.2237 15.9083 95.3145 16.4038 95.3878 16.9762C95.4612 17.5496 95.5066 18.1486 95.5249 18.7742C95.5432 19.3998 95.5519 20.0245 95.5519 20.6501V22.3702H96.1012C96.6506 22.3702 97.2906 22.3528 98.0234 22.318C98.7551 22.2841 99.4792 22.3006 100.193 22.3702C100.907 22.4398 101.557 22.6047 102.143 22.8648C102.728 23.1249 103.167 23.5682 103.46 24.1938L103.463 24.1892Z" fill="black"/>
<path d="M124.94 40.0312C125.379 39.9268 125.827 39.8581 126.285 39.8223C126.743 39.7884 127.164 39.8406 127.549 39.979C127.933 40.1182 128.254 40.3527 128.511 40.6824C128.766 41.0131 128.895 41.4729 128.895 42.0637C128.895 42.4804 128.785 42.8807 128.566 43.2626C128.345 43.6455 128.071 43.9917 127.742 44.3049C127.413 44.6182 127.046 44.8875 126.643 45.1128C126.24 45.339 125.856 45.5213 125.49 45.6596C124.427 46.1112 123.211 46.4592 121.838 46.702C120.465 46.9456 119.045 47.0326 117.581 46.9621C115.604 46.8925 113.709 46.5188 111.896 45.8419C110.083 45.1641 108.664 44.0439 107.64 42.4804C106.687 40.9517 106.12 39.2499 105.937 37.3731C105.753 35.4973 105.845 33.7249 106.211 32.0579C106.613 30.0438 107.3 28.4015 108.271 27.1329C109.241 25.8653 110.404 24.8486 111.759 24.0847C113.407 23.1816 115.256 22.7127 117.306 22.6779C119.357 22.644 121.315 23.0259 123.184 23.8246C124.428 24.3458 125.545 25.0492 126.534 25.9349C127.524 26.8206 128.273 27.8895 128.787 29.1398C128.932 29.4521 129.052 29.835 129.144 30.2865C129.235 30.7381 129.299 31.2162 129.336 31.72C129.372 32.2237 129.372 32.7192 129.336 33.2047C129.299 33.692 129.208 34.1252 129.062 34.5072C128.842 35.1328 128.568 35.6191 128.238 35.9663C127.909 36.3143 127.487 36.5744 126.975 36.7475C126.461 36.9216 125.849 37.0343 125.135 37.0865C124.42 37.1387 123.57 37.1826 122.58 37.2165C121.702 37.2513 120.877 37.2687 120.109 37.2687C119.34 37.2687 118.552 37.2605 117.747 37.2431C116.941 37.2257 116.108 37.2092 115.248 37.1908C114.387 37.1734 113.426 37.1478 112.364 37.113C112.254 37.8082 112.355 38.4072 112.666 38.911C112.977 39.4148 113.408 39.8315 113.957 40.1612C114.507 40.4919 115.128 40.7438 115.824 40.9169C116.519 41.0909 117.197 41.1954 117.856 41.2292C119.101 41.2989 120.291 41.2036 121.426 40.9425C122.561 40.6824 123.734 40.3783 124.942 40.0303L124.94 40.0312ZM122.578 29.9211C121.882 29.1572 121.15 28.6012 120.381 28.2531C119.795 28.0104 119.181 27.8969 118.541 27.9143C117.9 27.9326 117.286 28.0278 116.701 28.2009C115.638 28.4446 114.741 28.9657 114.009 29.7644C113.936 29.834 113.808 29.9989 113.625 30.26C113.442 30.5201 113.268 30.7903 113.103 31.0678C112.938 31.3462 112.819 31.6064 112.746 31.8491C112.672 32.0928 112.709 32.2137 112.856 32.2137H123.621C123.584 31.7273 123.492 31.3197 123.347 30.989C123.2 30.6593 122.943 30.303 122.578 29.9211Z" fill="black"/>
<path d="M52 32.5C52 41.6125 44.1648 49 34.5 49C24.8352 49 17 41.6125 17 32.5C17 30.43 17.4039 28.4491 18.1419 26.6241C19.4429 28.5533 21.7312 29.8333 24.3359 29.8333C25.2241 29.8333 26.0753 29.685 26.8628 29.4117C28.8814 28.7133 30.4838 27.2025 31.2245 25.2992C31.5144 24.5567 31.6717 23.7542 31.6717 22.9167C31.6717 20.4608 30.3141 18.3033 28.2681 17.0767C30.2037 16.3808 32.3045 16 34.5 16C44.1648 16 52 23.3875 52 32.5Z" fill="black"/>
<path d="M34.5 65C29.8438 65 25.3251 64.1403 21.0698 62.4451C16.9609 60.8084 13.2723 58.4649 10.1043 55.4814C6.93636 52.4979 4.44952 49.0223 2.71211 45.1516C0.912609 41.143 0 36.8871 0 32.5C0 28.1129 0.912609 23.857 2.71211 19.8484C4.44952 15.9776 6.93725 12.5029 10.1043 9.51855C13.2714 6.53423 16.9609 4.19159 21.0698 2.55489C25.3251 0.859711 29.8429 0 34.5 0C39.1571 0 43.6749 0.859711 47.9302 2.55489C52.0391 4.19159 55.7277 6.53506 58.8957 9.51855C62.0636 12.502 64.5505 15.9776 66.2879 19.8484C68.0874 23.857 69 28.1129 69 32.5C69 36.8871 68.0874 41.143 66.2879 45.1516C64.5505 49.0223 62.0628 52.4971 58.8957 55.4814C55.7286 58.4657 52.0391 60.8084 47.9302 62.4451C43.6749 64.1403 39.1571 65 34.5 65ZM34.5 5.01285C18.4109 5.01285 5.32134 17.3436 5.32134 32.5C5.32134 47.6564 18.4109 59.9871 34.5 59.9871C50.5891 59.9871 63.6787 47.6564 63.6787 32.5C63.6787 17.3436 50.5891 5.01285 34.5 5.01285Z" fill="black"/>
<path d="M43 32.5C43 36.6418 39.194 40 34.5 40C29.806 40 26 36.6418 26 32.5C26 31.45 26.2441 30.4503 26.6863 29.5431C28.7516 28.8745 30.3911 27.4279 31.1488 25.6056C32.177 25.2154 33.31 25 34.5 25C39.194 25 43 28.3574 43 32.5Z" fill="#8A8A8A"/>
</svg>
