<svg width="86" height="83" viewBox="0 0 86 83" fill="none" xmlns="http://www.w3.org/2000/svg">
<g clip-path="url(#clip0_899_303)">
<path d="M42.3153 -1.60207e-05H42.6352C50.3477 -1.60207e-05 57.5648 2.11994 63.7465 5.80998L63.5573 5.70278C69.883 9.39122 75.1545 14.6587 78.8619 20.9955L78.9685 21.1961C82.7141 27.6704 84.678 35.0305 84.6583 42.5202C84.6583 61.216 72.6767 77.1035 56.0134 82.8375L55.7141 82.9274C55.3414 83.0415 54.9471 83.0655 54.5634 82.9976C54.1796 82.9297 53.8172 82.7718 53.5056 82.5366L53.5125 82.54C53.2863 82.3378 53.1055 82.0896 52.9822 81.8117C52.8588 81.5338 52.7957 81.2327 52.797 80.9285V80.88V80.8835L52.8245 76.6436C52.8429 73.9276 52.852 71.4445 52.852 69.1943C52.9805 67.7522 52.7903 66.2993 52.2949 64.9397C51.7995 63.5802 51.0112 62.3475 49.9865 61.3301C51.9812 61.1364 53.9573 60.7837 55.8964 60.2753L55.635 60.3341C57.4848 59.825 59.2618 59.0788 60.9223 58.1138L60.8156 58.1726C62.5112 57.2424 64.0187 56.0014 65.2601 54.5137L65.2807 54.4895C66.594 52.7945 67.5746 50.8639 68.1703 48.8005L68.2013 48.6795C68.9601 46.1198 69.3414 43.462 69.3331 40.791L69.3296 40.3207V40.3449L69.3331 40.0959C69.3383 35.9509 67.778 31.9585 64.9677 28.9255L64.978 28.9359C65.5559 27.4142 65.8896 25.6574 65.8896 23.821C65.8924 21.6524 65.4178 19.51 64.4999 17.5476L64.5377 17.6375C63.0077 17.3528 61.4272 17.5723 60.0313 18.2634L60.0726 18.2462C58.2616 18.9107 56.5196 19.7516 54.8713 20.7569L55.002 20.6808L52.9071 22.0088C49.7354 21.0958 46.0924 20.5702 42.3291 20.5702C38.5657 20.5702 34.9227 21.0958 31.469 22.078L31.7476 22.0088C31.1605 21.603 30.3797 21.1039 29.405 20.5114C28.002 19.7119 26.5389 19.0239 25.0293 18.4537L24.8023 18.3776C23.3511 17.6171 21.6917 17.357 20.0791 17.6375L20.1239 17.6306C19.2264 19.5667 18.7648 21.678 18.7719 23.8141C18.7719 25.6504 19.1056 27.4107 19.7179 29.0327L19.6835 28.9324C16.8151 32.0291 15.2549 36.1245 15.3319 40.3553V40.3414L15.3285 40.791C15.3285 43.5888 15.7413 46.2932 16.5119 48.8386L16.4603 48.6414C17.1104 50.8652 18.0977 52.7984 19.3843 54.4964L19.3533 54.4514C20.5623 55.9416 22.0412 57.1878 23.7118 58.1242L23.7875 58.1622C25.2735 59.0337 26.997 59.7704 28.8099 60.2857L28.9681 60.3237C30.5711 60.756 32.4907 61.1087 34.4549 61.3059L34.6131 61.3197C33.1305 62.7999 32.1432 64.778 31.9162 66.9844L31.9127 67.026C31.1477 67.3964 30.3401 67.6706 29.5082 67.8421L29.4359 67.856C28.5553 68.0323 27.5474 68.1326 26.5119 68.1326H26.2849H26.2952C24.9932 68.1039 23.7295 67.6848 22.666 66.9291L22.6867 66.943C21.4237 66.0619 20.3853 64.8936 19.656 63.533L19.6319 63.4812C18.9702 62.3448 18.0683 61.3685 16.99 60.6211L16.9591 60.6004C16.1598 59.9967 15.254 59.5508 14.2896 59.2862L14.2346 59.2724L13.1338 59.1064C12.5813 59.0656 12.027 59.1532 11.5135 59.3623L11.5376 59.3519C11.2441 59.5179 11.1523 59.73 11.2624 59.9882C11.3954 60.2834 11.5617 60.5427 11.7612 60.7664L11.7578 60.7629C11.9688 61.0119 12.2038 61.2309 12.463 61.42L12.4733 61.4269L12.8586 61.7036C13.8321 62.2154 14.6336 62.9278 15.2425 63.789L15.2563 63.8097C15.9133 64.6293 16.4912 65.5562 16.9556 66.5487L16.99 66.6317L17.5404 67.9044C18.0048 69.2946 18.8476 70.4566 19.9484 71.297L19.9656 71.3108C20.9976 72.1201 22.2429 72.7011 23.6017 72.9639L23.6567 72.9708C24.7919 73.1922 26.1129 73.3305 27.4614 73.3582H27.4855C27.6437 73.3628 27.8157 73.3651 28.0015 73.3651C28.9005 73.3651 29.7799 73.2936 30.6399 73.1507L30.5471 73.1645L31.813 72.9432C31.813 74.3472 31.8222 75.9819 31.8405 77.8471C31.8589 79.7123 31.868 80.7186 31.868 80.8662V80.9146C31.868 81.5544 31.5928 82.1285 31.1525 82.5262C30.8391 82.7619 30.4712 82.9195 30.0856 82.9862C29.6999 83.053 29.304 83.0269 28.9303 82.9101L28.9475 82.9135C11.9917 77.0724 0.0205078 61.1848 0.0205078 42.4856C0.0205078 34.6421 2.12579 27.2932 5.80315 20.9782L5.69307 21.1788C9.36196 14.8194 14.6015 9.51978 20.9047 5.79269L21.1043 5.68548C27.4342 1.93923 34.6501 -0.0257769 41.9954 -0.00347435H42.3325H42.3153V-1.60207e-05ZM16.0337 61.0949C16.1438 60.8367 16.0154 60.6154 15.6484 60.4309C15.2815 60.3202 15.043 60.3571 14.9329 60.5416C14.8228 60.7998 14.9513 61.0211 15.3182 61.2056C15.6484 61.4269 15.8869 61.39 16.0337 61.0949ZM17.7434 62.9797C18.0002 62.7953 17.9635 62.5001 17.6333 62.0944C17.2664 61.7624 16.9728 61.707 16.7527 61.9284C16.4958 62.1128 16.5325 62.4079 16.8627 62.8137C17.2274 63.1757 17.5209 63.2299 17.7434 62.9762V62.9797ZM19.3946 65.4697C19.7248 65.2115 19.7248 64.861 19.3946 64.4184C19.101 63.9388 18.7891 63.8281 18.4589 64.0864C18.1287 64.2708 18.1287 64.6028 18.4589 65.0824C18.7891 65.5619 19.101 65.691 19.3946 65.4697ZM21.7063 67.7972C21.9998 67.502 21.9264 67.1516 21.4861 66.7458C21.0458 66.3032 20.6789 66.2478 20.3853 66.5798C20.0551 66.8749 20.1285 67.2254 20.6055 67.6312C21.0458 68.0738 21.4127 68.1246 21.7063 67.7833V67.7972ZM24.847 69.1805C24.9571 68.7747 24.7186 68.4796 24.1315 68.2952C23.5811 68.1476 23.2325 68.2767 23.0857 68.6825C22.9389 69.0883 23.1774 69.3649 23.8012 69.5125C24.3516 69.7361 24.7002 69.6255 24.847 69.1805ZM28.3179 69.4572C28.3179 68.9776 28.0061 68.7747 27.3823 68.8485C26.7952 68.8485 26.5016 69.0514 26.5016 69.4572C26.5016 69.9367 26.8135 70.1396 27.4373 70.0658C28.0244 70.0681 28.3179 69.8629 28.3179 69.4572ZM31.5137 68.9038C31.4403 68.498 31.1101 68.3321 30.523 68.4058C29.9359 68.5165 29.679 68.7932 29.7524 69.2358C29.8258 69.6785 30.1561 69.8261 30.7431 69.6785C31.3302 69.5309 31.5848 69.2727 31.5137 68.9038Z" fill="white"/>
</g>
<defs>
<clipPath id="clip0_899_303">
<rect width="86" height="83" fill="white"/>
</clipPath>
</defs>
</svg>


