<svg width="48" height="48" viewBox="0 0 48 48" fill="none" xmlns="http://www.w3.org/2000/svg">
<path d="M42.6679 0C44.0824 0 45.439 0.561903 46.4392 1.5621C47.4394 2.56229 48.0013 3.91885 48.0013 5.33333V42.6667C48.0013 44.0812 47.4394 45.4377 46.4392 46.4379C45.439 47.4381 44.0824 48 42.6679 48H5.33462C3.92013 48 2.56357 47.4381 1.56338 46.4379C0.563185 45.4377 0.00128174 44.0812 0.00128174 42.6667V5.33333C0.00128174 3.91885 0.563185 2.56229 1.56338 1.5621C2.56357 0.561903 3.92013 0 5.33462 0H42.6679ZM41.3346 41.3333V27.2C41.3346 24.8944 40.4187 22.6832 38.7884 21.0529C37.1581 19.4226 34.9469 18.5067 32.6413 18.5067C30.3746 18.5067 27.7346 19.8933 26.4546 21.9733V19.0133H19.0146V41.3333H26.4546V28.1867C26.4546 26.1333 28.108 24.4533 30.1613 24.4533C31.1514 24.4533 32.101 24.8467 32.8011 25.5468C33.5013 26.2469 33.8946 27.1965 33.8946 28.1867V41.3333H41.3346ZM10.3479 14.8267C11.5361 14.8267 12.6756 14.3547 13.5158 13.5145C14.356 12.6743 14.8279 11.5348 14.8279 10.3467C14.8279 7.86667 12.8279 5.84 10.3479 5.84C9.15271 5.84 8.00642 6.31481 7.16125 7.15997C6.31609 8.00514 5.84128 9.15142 5.84128 10.3467C5.84128 12.8267 7.86795 14.8267 10.3479 14.8267ZM14.0546 41.3333V19.0133H6.66795V41.3333H14.0546Z" fill="#FFFFFC"/>
</svg>
