<svg width="49" height="48" viewBox="0 0 49 48" fill="none" xmlns="http://www.w3.org/2000/svg">
<path d="M42.8346 0C44.2491 0 45.6057 0.561903 46.6059 1.5621C47.6061 2.56229 48.168 3.91885 48.168 5.33333V42.6667C48.168 44.0812 47.6061 45.4377 46.6059 46.4379C45.6057 47.4381 44.2491 48 42.8346 48H5.5013C4.08681 48 2.73026 47.4381 1.73007 46.4379C0.729872 45.4377 0.167969 44.0812 0.167969 42.6667V5.33333C0.167969 3.91885 0.729872 2.56229 1.73007 1.5621C2.73026 0.561903 4.08681 0 5.5013 0H42.8346ZM41.5013 41.3333V27.2C41.5013 24.8944 40.5854 22.6832 38.9551 21.0529C37.3248 19.4226 35.1136 18.5067 32.808 18.5067C30.5413 18.5067 27.9013 19.8933 26.6213 21.9733V19.0133H19.1813V41.3333H26.6213V28.1867C26.6213 26.1333 28.2746 24.4533 30.328 24.4533C31.3181 24.4533 32.2677 24.8467 32.9678 25.5468C33.668 26.2469 34.0613 27.1965 34.0613 28.1867V41.3333H41.5013ZM10.5146 14.8267C11.7028 14.8267 12.8423 14.3547 13.6825 13.5145C14.5226 12.6743 14.9946 11.5348 14.9946 10.3467C14.9946 7.86667 12.9946 5.84 10.5146 5.84C9.31939 5.84 8.17311 6.31481 7.32794 7.15997C6.48278 8.00514 6.00797 9.15142 6.00797 10.3467C6.00797 12.8267 8.03464 14.8267 10.5146 14.8267ZM14.2213 41.3333V19.0133H6.83464V41.3333H14.2213Z" fill="black"/>
</svg>
